<svg xmlns="http://www.w3.org/2000/svg" xmlns:xlink="http://www.w3.org/1999/xlink" width="500" zoomAndPan="magnify" viewBox="0 0 375 374.999991" height="500" preserveAspectRatio="xMidYMid meet" version="1.0"><defs><g/><clipPath id="169a08b1be"><path d="M 73 145 L 134 145 L 134 185 L 73 185 Z M 73 145 " clip-rule="nonzero"/></clipPath><clipPath id="5e1338cb0b"><path d="M 139.640625 152.898438 L 125.652344 194.089844 L 73.101562 176.246094 L 87.085938 135.054688 Z M 139.640625 152.898438 " clip-rule="nonzero"/></clipPath><clipPath id="9d8be24f40"><path d="M 139.640625 152.898438 L 125.652344 194.089844 L 73.101562 176.246094 L 87.085938 135.054688 Z M 139.640625 152.898438 " clip-rule="nonzero"/></clipPath><clipPath id="114e4c5191"><path d="M 95 148 L 131 148 L 131 183 L 95 183 Z M 95 148 " clip-rule="nonzero"/></clipPath><clipPath id="978d690c98"><path d="M 139.640625 152.898438 L 125.652344 194.089844 L 73.101562 176.246094 L 87.085938 135.054688 Z M 139.640625 152.898438 " clip-rule="nonzero"/></clipPath><clipPath id="f56b888435"><path d="M 139.640625 152.898438 L 125.652344 194.089844 L 73.101562 176.246094 L 87.085938 135.054688 Z M 139.640625 152.898438 " clip-rule="nonzero"/></clipPath></defs><rect x="-37.5" width="450" fill="#ffffff" y="-37.499999" height="449.999989" fill-opacity="1"/><rect x="-37.5" width="450" fill="#fef9ea" y="-37.499999" height="449.999989" fill-opacity="1"/><g fill="#ab8262" fill-opacity="1"><g transform="translate(82.425821, 243.185778)"><g><path d="M 63.640625 -91.265625 C 62 -111.15625 45.0625 -115.4375 35.1875 -115.4375 L 16.28125 -115.4375 C 8.0625 -115.4375 7.890625 -115.265625 7.890625 -107.21875 L 7.890625 -7.890625 C 7.890625 -3.953125 7.5625 -0.328125 11.515625 0 C 16.609375 0.328125 24.671875 0.5 26.140625 -0.984375 C 26.796875 -1.640625 27.296875 -3.625 27.296875 -6.578125 L 27.296875 -32.390625 C 27.296875 -37.65625 26.46875 -41.609375 32.0625 -42.265625 C 32.890625 -42.421875 35.359375 -42.59375 39.140625 -42.59375 C 42.09375 -42.75 44.390625 -43.078125 46.046875 -43.734375 C 56.40625 -47.6875 63.3125 -56.890625 63.796875 -67.90625 L 63.796875 -78.9375 C 63.796875 -86.65625 63.796875 -90.765625 63.640625 -91.265625 Z M 45.21875 -70.875 C 44.234375 -64.296875 38.3125 -60.1875 32.0625 -61.171875 C 29.109375 -61.671875 27.625 -63.3125 27.46875 -65.9375 L 27.46875 -78.9375 L 27.296875 -78.9375 C 27.296875 -92.578125 25.484375 -96.359375 34.203125 -95.703125 C 46.375 -94.71875 46.703125 -82.046875 45.21875 -70.875 Z M 45.21875 -70.875 "/></g></g></g><g fill="#ab8262" fill-opacity="1"><g transform="translate(152.802475, 243.185778)"><g><path d="M 71.359375 -59.859375 L 64.78125 -63.640625 L 64.78125 -85.5 C 64.78125 -94.21875 62.65625 -103.59375 55.75 -110.015625 C 48.84375 -116.59375 40.609375 -118.390625 27.625 -116.421875 C 25.484375 -116.09375 23.671875 -115.265625 21.703125 -113.796875 C 12.171875 -106.890625 7.5625 -98.65625 7.890625 -88.953125 C 7.890625 -84.359375 8.0625 -75.640625 7.890625 -63.640625 L 1.3125 -59.859375 C 0.328125 -59.203125 0 -58.546875 0 -57.390625 C 0 -56.40625 0.328125 -55.75 1.3125 -55.09375 L 7.890625 -51.296875 L 7.890625 -27.296875 C 7.890625 -22.03125 8.71875 -17.765625 10.6875 -14.140625 C 21.21875 5.59375 48.515625 6.90625 61.5 -13.984375 C 62.328125 -15.453125 62.984375 -16.765625 63.140625 -18.25 C 64.453125 -25 64.953125 -29.265625 64.953125 -31.078125 L 64.78125 -51.296875 L 71.359375 -55.09375 C 72.359375 -55.75 72.6875 -56.40625 72.6875 -57.390625 C 72.6875 -58.546875 72.359375 -59.359375 71.359375 -59.859375 Z M 43.25 -24.34375 C 40.28125 -17.765625 30.75 -17.921875 28.125 -24.671875 C 27.46875 -25.984375 27.296875 -28.453125 27.296875 -31.734375 L 27.296875 -85.34375 C 27.296875 -87.96875 27.296875 -89.625 27.46875 -90.609375 C 28.609375 -98.984375 40.78125 -99.984375 43.40625 -91.921875 C 43.90625 -90.28125 44.234375 -88.46875 44.234375 -86.171875 L 44.234375 -30.578125 C 44.234375 -27.953125 43.90625 -25.8125 43.25 -24.34375 Z M 43.25 -24.34375 "/></g></g></g><g fill="#ab8262" fill-opacity="1"><g transform="translate(231.565151, 243.185778)"><g><path d="M 63.640625 -91.265625 C 62 -111.15625 45.0625 -115.4375 35.1875 -115.4375 L 16.28125 -115.4375 C 8.0625 -115.4375 7.890625 -115.265625 7.890625 -107.21875 L 7.890625 -63.46875 L 1.3125 -59.6875 C 0.5 -59.203125 0 -58.546875 0 -57.390625 C 0 -56.40625 0.5 -55.578125 1.3125 -55.09375 L 7.890625 -51.296875 L 7.890625 -7.890625 C 7.890625 -3.953125 7.5625 -0.328125 11.515625 0 C 16.609375 0.328125 24.671875 0.5 26.140625 -0.984375 C 26.796875 -1.640625 27.296875 -3.625 27.296875 -6.578125 L 27.296875 -32.390625 C 27.296875 -37.65625 26.46875 -41.609375 32.0625 -42.265625 C 32.890625 -42.421875 35.359375 -42.59375 39.140625 -42.59375 C 42.09375 -42.75 44.390625 -43.078125 46.046875 -43.734375 C 56.40625 -47.6875 63.3125 -56.890625 63.796875 -67.90625 L 63.796875 -78.9375 C 63.796875 -86.65625 63.796875 -90.765625 63.640625 -91.265625 Z M 45.21875 -70.875 C 44.234375 -64.296875 38.3125 -60.1875 32.0625 -61.171875 C 29.109375 -61.671875 27.625 -63.3125 27.46875 -65.9375 L 27.46875 -78.9375 L 27.296875 -78.9375 C 27.296875 -92.578125 25.484375 -96.359375 34.203125 -95.703125 C 46.375 -94.71875 46.703125 -82.046875 45.21875 -70.875 Z M 45.21875 -70.875 "/></g></g></g><g clip-path="url(#169a08b1be)"><g clip-path="url(#5e1338cb0b)"><g clip-path="url(#9d8be24f40)"><path fill="#fef9ea" d="M 101.585938 148.921875 C 102.820312 149.121094 104.246094 149.382812 105.5 149.355469 C 106.769531 149.320312 108.046875 147.761719 109.121094 147.101562 C 110.878906 146.035156 112.871094 145.277344 114.921875 145.242188 C 116.972656 145.203125 119.09375 145.921875 120.488281 147.433594 C 121.402344 148.410156 121.96875 149.660156 122.925781 150.578125 C 124.503906 152.105469 126.894531 152.542969 128.457031 154.078125 C 130.625 156.199219 130.5625 159.648438 131.664062 162.46875 C 132.058594 163.472656 132.597656 164.414062 132.960938 165.445312 C 134.003906 168.441406 133.128906 172.011719 130.808594 174.183594 C 129.816406 175.113281 128.609375 175.789062 127.65625 176.78125 C 126.492188 177.980469 125.800781 179.5625 124.761719 180.875 C 122.035156 184.339844 116.789062 185.527344 112.828125 183.578125 C 111.992188 183.164062 111.207031 182.628906 110.324219 182.308594 C 108.121094 181.523438 105.703125 182.230469 103.363281 182.167969 C 99.316406 182.074219 95.691406 179.726562 91.753906 178.796875 C 88.757812 178.082031 85.644531 178.003906 82.578125 177.871094 C 76.460938 177.609375 73.328125 175.488281 73.15625 175.265625 L 80.273438 154.308594 C 80.644531 154.003906 81.054688 153.75 81.527344 153.59375 C 83.183594 153.039062 85.175781 153.691406 86.875 153.734375 C 89.066406 153.789062 91.175781 154.296875 93.105469 153.183594 C 94.582031 152.320312 95.394531 151.722656 96.769531 150.6875 C 98.167969 149.683594 99.894531 148.652344 101.585938 148.921875 Z M 101.585938 148.921875 " fill-opacity="1" fill-rule="nonzero"/></g></g></g><g clip-path="url(#114e4c5191)"><g clip-path="url(#978d690c98)"><g clip-path="url(#f56b888435)"><path fill="#ab8262" d="M 117.3125 171.300781 C 116.496094 172.152344 115.5 172.792969 114.503906 173.433594 C 111.808594 175.160156 109.105469 176.875 106.410156 178.605469 C 105.597656 179.117188 104.75 179.65625 103.792969 179.765625 C 102.378906 179.921875 98.425781 179.316406 97.328125 176.066406 C 96.964844 175.011719 96.878906 173.886719 96.949219 172.757812 C 97.117188 170.382812 97.324219 167.984375 96.945312 165.640625 C 96.554688 163.25 95.554688 160.988281 95.332031 158.585938 C 95.113281 156.179688 95.960938 153.40625 98.175781 152.445312 C 99.882812 151.699219 101.914062 152.273438 103.527344 153.214844 C 105.140625 154.160156 106.507812 155.472656 108.148438 156.378906 C 110.199219 157.542969 112.5625 158.019531 114.746094 158.898438 C 119.988281 161.015625 121.496094 166.933594 117.3125 171.300781 Z M 129.835938 167.0625 C 129.023438 166.132812 127.894531 165.472656 126.667969 165.3125 C 125.441406 165.152344 124.140625 165.523438 123.261719 166.390625 C 122.398438 167.261719 122.003906 168.628906 122.386719 169.796875 C 122.714844 170.78125 123.546875 171.566406 124.496094 171.957031 C 125.441406 172.359375 126.523438 172.425781 127.554688 172.308594 C 128.273438 172.214844 129.011719 172.035156 129.59375 171.617188 C 131.148438 170.5 130.996094 168.378906 129.835938 167.0625 Z M 121.398438 175.621094 C 120.746094 175.179688 120.058594 174.769531 119.308594 174.574219 C 118.558594 174.378906 117.710938 174.414062 116.992188 174.847656 C 116.191406 175.320312 115.648438 176.195312 115.269531 177.105469 C 115.019531 177.707031 114.816406 178.371094 114.832031 179.015625 C 114.847656 180.199219 115.613281 181.203125 116.574219 181.667969 C 117.980469 182.359375 120.84375 182.199219 122.148438 180.894531 C 123.8125 179.214844 122.882812 176.601562 121.398438 175.621094 Z M 128.511719 157.109375 C 128.355469 156.511719 127.972656 156.019531 127.558594 155.625 C 126.566406 154.679688 125.277344 154.113281 123.925781 154.015625 C 123.027344 153.957031 121.992188 154.152344 121.328125 154.941406 C 120.695312 155.679688 120.53125 156.8125 120.707031 157.769531 C 120.96875 159.160156 121.882812 160.273438 123.035156 160.757812 C 124.183594 161.242188 125.566406 161.117188 126.785156 160.519531 C 127.910156 159.945312 128.863281 158.476562 128.511719 157.109375 Z M 117.074219 150.59375 C 116.6875 149.8125 115.828125 149.359375 115 149.0625 C 114.054688 148.71875 113.035156 148.5 112.039062 148.617188 C 111.046875 148.734375 110.050781 149.234375 109.515625 150.089844 C 108.925781 151.03125 108.953125 152.285156 109.5 153.253906 C 110.046875 154.21875 111.050781 154.863281 112.125 155.121094 C 113.207031 155.363281 114.351562 155.226562 115.390625 154.832031 C 115.859375 154.65625 116.320312 154.425781 116.664062 154.066406 C 117.332031 153.339844 117.492188 151.460938 117.074219 150.59375 Z M 117.074219 150.59375 " fill-opacity="1" fill-rule="nonzero"/></g></g></g></svg>